<svg role="img" viewBox="0 0 24 24" xmlns="http://www.w3.org/2000/svg"><title>Node.js</title><path d="M12 .325c-.61 0-1.22.16-1.75.466L3.03 4.61c-1.08.62-1.75 1.77-1.75 3.03v8.72c0 1.26.67 2.41 1.75 3.03l7.22 4.12c1.08.62 2.42.62 3.5 0l7.22-4.12c1.08-.62 1.75-1.77 1.75-3.03V7.64c0-1.26-.67-2.41-1.75-3.03L13.75.79A3.37 3.37 0 0 0 12 .325zm0 1.4c.36 0 .72.09 1.04.28l7.22 4.12c.64.37 1.04 1.06 1.04 1.81v8.72c0 .75-.4 1.44-1.04 1.81l-7.22 4.12c-.64.37-1.44.37-2.08 0l-7.22-4.12A2.07 2.07 0 0 1 2.7 16.24V7.64c0-.75.4-1.44 1.04-1.81l7.22-4.12c.32-.19.68-.28 1.04-.28zm.01 3.13c-.32 0-.63.08-.91.23l-5.1 2.95c-.58.33-.93.95-.93 1.6v5.9c0 .66.35 1.27.93 1.6l5.1 2.95c.58.33 1.29.33 1.87 0l5.1-2.95c.58-.33.93-.95.93-1.6v-5.9c0-.66-.35-1.27-.93-1.6l-5.1-2.95a1.8 1.8 0 0 0-.92-.23zm0 1.4c.13 0 .26.03.37.1l5.1 2.95c.16.09.26.26.26.44v5.9c0 .18-.1.35-.26.44l-5.1 2.95a.5.5 0 0 1-.5 0l-5.1-2.95a.5.5 0 0 1-.26-.44v-5.9c0-.18.1-.35.26-.44l5.1-2.95c.11-.07.24-.1.37-.1zm-.01 2.1c-.28 0-.5.22-.5.5v5.9c0 .28.22.5.5.5s.5-.22.5-.5v-5.9c0-.28-.22-.5-.5-.5z"/></svg> 